HIERARCHY
ROOT Hips
{
	OFFSET 0.000000 0.000000 0.000000
	CHANNELS 6 Xposition Yposition Zposition Xrotation Yrotation Zrotation
	JOINT Chest
	{
		OFFSET 0.000000 0.009282 11.569106
		CHANNELS 3 Xrotation Yrotation Zrotation
		JOINT Chest2
		{
			OFFSET 0.000000 -0.016863 9.269641
			CHANNELS 3 Xrotation Yrotation Zrotation
			JOINT Chest3
			{
				OFFSET 0.000000 0.000000 8.374491
				CHANNELS 3 Xrotation Yrotation Zrotation
				JOINT Chest4
				{
					OFFSET 0.000000 0.000000 8.374493
					CHANNELS 3 Xrotation Yrotation Zrotation
					JOINT Neck
					{
						OFFSET 0.000000 -0.000001 12.152554
						CHANNELS 3 Xrotation Yrotation Zrotation
						JOINT Head
						{
							OFFSET 0.000000 -0.040100 7.802319
							CHANNELS 3 Xrotation Yrotation Zrotation
							End Site
							{
								OFFSET 0.000000 -0.020946 14.853096
							}
						}
					}
					JOINT RightCollar
					{
						OFFSET -2.894404 0.000000 6.791374
						CHANNELS 3 Xrotation Yrotation Zrotation
						JOINT RightShoulder
						{
							OFFSET -13.574684 0.000000 0.000000
							CHANNELS 3 Xrotation Yrotation Zrotation
							JOINT RightElbow
							{
								OFFSET -23.923903 0.000000 0.000000
								CHANNELS 3 Xrotation Yrotation Zrotation
								JOINT RightWrist
								{
									OFFSET -19.846718 -0.012765 0.000000
									CHANNELS 3 Xrotation Yrotation Zrotation
									End Site
									{
										OFFSET -14.973145 0.000000 0.000000
									}
								}
							}
						}
					}
					JOINT LeftCollar
					{
						OFFSET 2.894404 0.000000 6.791374
						CHANNELS 3 Xrotation Yrotation Zrotation
						JOINT LeftShoulder
						{
							OFFSET 13.574684 0.000000 0.000000
							CHANNELS 3 Xrotation Yrotation Zrotation
							JOINT LeftElbow
							{
								OFFSET 23.923903 0.000000 0.000000
								CHANNELS 3 Xrotation Yrotation Zrotation
								JOINT LeftWrist
								{
									OFFSET 19.846718 -0.012765 0.000000
									CHANNELS 3 Xrotation Yrotation Zrotation
									End Site
									{
										OFFSET 14.973145 0.000000 0.000000
									}
								}
							}
						}
					}
				}
			}
		}
	}
	JOINT RightHip
	{
		OFFSET -9.469263 -0.004642 0.045487
		CHANNELS 3 Xrotation Yrotation Zrotation
		JOINT RightKnee
		{
			OFFSET 0.000000 -0.002666 -40.478676
			CHANNELS 3 Xrotation Yrotation Zrotation
			JOINT RightAnkle
			{
				OFFSET 0.000000 -0.049110 -35.224068
				CHANNELS 3 Xrotation Yrotation Zrotation
				JOINT RightToe
				{
					OFFSET 0.000000 -12.539530 -6.151390
					CHANNELS 3 Xrotation Yrotation Zrotation
					End Site
					{
						OFFSET 0.000000 -5.044995 -1.291870
					}
				}
			}
		}
	}
	JOINT LeftHip
	{
		OFFSET 9.469263 -0.004642 0.045487
		CHANNELS 3 Xrotation Yrotation Zrotation
		JOINT LeftKnee
		{
			OFFSET 0.000000 -0.002666 -40.478676
			CHANNELS 3 Xrotation Yrotation Zrotation
			JOINT LeftAnkle
			{
				OFFSET 0.000000 -0.049110 -35.224068
				CHANNELS 3 Xrotation Yrotation Zrotation
				JOINT LeftToe
				{
					OFFSET 0.000000 -12.539530 -6.151390
					CHANNELS 3 Xrotation Yrotation Zrotation
					End Site
					{
						OFFSET 0.000000 -5.044995 -1.291870
					}
				}
			}
		}
	}
}
MOTION
Frames: 17
Frame Time: 0.016667
-10.813961 -4.599892 83.076149 1.952066 3.864965 -109.151750 1.506105 0.128896 0.590822 0.668797 0.051279 0.235530 0.668797 0.051279 0.235532 0.501617 0.038201 0.176708 18.402767 -1.445756 -1.363594 -2.031490 -2.191334 -2.965640 -4.734357 -11.181122 -3.526497 5.280386 -64.434960 1.218236 -7.121352 -4.467980 0.322435 -11.390523 -13.312830 -8.464202 2.686419 9.046407 -3.767954 -15.901758 75.184209 10.287377 -4.670815 2.709641 -7.793482 21.543795 -0.721920 1.536874 7.490310 -0.639969 0.504418 1.493177 -0.110812 -0.146280 -4.589578 -0.063238 -3.504534 -0.013237 -0.037678 -0.071437 7.838521 0.307226 0.749616 0.305833 0.109603 3.031935 -3.784617 -1.133848 1.010480 0.010521 0.031329 0.073756 
-10.778041 -4.605167 83.078979 1.926356 3.900685 -108.911000 1.531014 0.173182 0.627633 0.679398 0.069981 0.250023 0.679398 0.069981 0.250016 0.509577 0.052208 0.187594 18.362707 -1.491890 -1.404415 -2.107347 -2.261245 -3.056124 -4.712771 -11.150451 -3.605896 7.346000 -63.722168 3.320954 -5.641957 -3.838116 -0.286590 -9.889212 -15.115222 -9.613341 2.751366 8.955875 -3.795726 -17.116819 74.959537 11.156866 -5.808901 3.085357 -8.784451 21.581786 -0.531883 2.360587 7.490959 -0.625612 0.387647 1.543730 -0.143893 -0.208562 -4.613126 -0.027724 -3.556710 -0.017584 -0.032267 -0.070263 7.804172 0.304952 0.599393 0.314804 0.103301 2.984829 -3.728432 -1.132746 0.963368 0.013981 0.025484 0.072973 
-10.745608 -4.610578 83.081924 1.903241 3.936517 -108.658358 1.561197 0.225790 0.686359 0.692263 0.092347 0.274229 0.692263 0.092348 0.274237 0.519239 0.068950 0.205781 18.331446 -1.561715 -1.455369 -2.167648 -2.371209 -3.172834 -4.752429 -11.125179 -3.693239 8.726376 -62.865123 4.807644 -3.016119 -3.248565 -0.976893 -8.295473 -16.320932 -10.466019 2.725165 8.835405 -3.772044 -17.826374 74.810591 11.593271 -6.986114 3.508051 -9.914059 21.859845 -0.529895 3.304196 7.502479 -0.613306 0.250794 1.580971 -0.178712 -0.262348 -4.632729 0.004344 -3.611880 -0.022596 -0.025345 -0.069513 7.770603 0.301655 0.482290 0.328248 0.098638 2.925099 -3.678535 -1.129320 0.899933 0.018007 0.017015 0.072830 
-10.716004 -4.616839 83.084503 1.888212 3.977510 -108.404193 1.580765 0.277033 0.747580 0.701152 0.113844 0.298432 0.701153 0.113844 0.298435 0.525919 0.085040 0.223956 18.325037 -1.635744 -1.499801 -2.182023 -2.491533 -3.278616 -4.788620 -11.094005 -3.740016 9.983184 -61.924394 6.190364 0.500359 -2.700359 -1.702732 -6.672160 -17.155810 -11.101440 2.720786 8.765890 -3.796837 -18.831562 74.641687 12.367949 -8.162692 4.040829 -11.255604 22.511371 -0.975723 4.311250 7.522223 -0.604790 0.124139 1.620119 -0.216185 -0.321198 -4.652511 0.034234 -3.680734 -0.029994 -0.018175 -0.068599 7.750339 0.290970 0.414139 0.333463 0.094433 2.827544 -3.629145 -1.119678 0.817857 0.024020 0.006105 0.073585 
-10.689004 -4.623141 83.086632 1.881677 4.028475 -108.158634 1.595611 0.332036 0.814733 0.708072 0.136890 0.324669 0.708072 0.136890 0.324672 0.531127 0.102291 0.243662 18.342258 -1.713608 -1.535020 -2.152732 -2.622456 -3.368366 -4.803858 -11.052935 -3.792939 11.449225 -60.943176 7.868278 4.562979 -2.135855 -2.468052 -4.820041 -17.997287 -11.668464 2.678279 8.731379 -3.843886 -20.110035 74.384278 13.478572 -8.960628 4.649545 -12.660936 23.114127 -1.932045 5.123582 7.555702 -0.605000 0.033429 1.657120 -0.245244 -0.401216 -4.671139 0.060307 -3.767484 -0.037632 -0.012805 -0.067648 7.750928 0.275033 0.387925 0.327684 0.096123 2.686792 -3.579074 -1.111172 0.743156 0.031044 -0.006115 0.074952 
-10.663746 -4.627599 83.088043 1.880261 4.093270 -107.922767 1.620470 0.389160 0.889644 0.719219 0.161387 0.355156 0.719219 0.161386 0.355155 0.539509 0.120622 0.266550 18.367857 -1.789463 -1.566061 -2.107887 -2.751315 -3.449644 -4.806276 -11.014822 -3.875724 13.351064 -59.890179 10.002371 8.722212 -1.544868 -3.227470 -2.828354 -18.915973 -12.154518 2.635185 8.698743 -3.932440 -21.337327 74.072418 14.493226 -9.218979 5.205146 -13.999060 23.273393 -3.327627 5.585257 7.609165 -0.606177 -0.052933 1.686701 -0.268479 -0.499144 -4.689108 0.081950 -3.810195 -0.043159 -0.010089 -0.066190 7.767809 0.256993 0.373300 0.325582 0.103001 2.545019 -3.536537 -1.103879 0.684431 0.039433 -0.016814 0.076232 
-10.640104 -4.633541 83.088730 1.883291 4.173906 -107.708784 1.656190 0.440381 0.972809 0.735307 0.183682 0.389469 0.735307 0.183682 0.389471 0.551598 0.137293 0.292326 18.399923 -1.855527 -1.592720 -2.050750 -2.863928 -3.519463 -4.814369 -10.977950 -3.926248 15.626872 -58.783770 12.486537 12.496162 -0.904071 -4.025882 -0.836766 -19.797568 -12.553504 2.600765 8.661189 -4.014293 -22.008422 73.816518 14.909482 -9.099442 5.652431 -15.248942 22.992413 -5.181602 5.664239 7.677857 -0.600438 -0.140077 1.714378 -0.299752 -0.592117 -4.707649 0.108085 -3.835713 -0.044743 -0.008759 -0.065225 7.799094 0.244851 0.340564 0.334754 0.106235 2.449054 -3.503492 -1.090994 0.617007 0.046969 -0.028274 0.076578 
-10.613717 -4.644462 83.089310 1.891374 4.262771 -107.510634 1.708656 0.495484 1.066624 0.759435 0.206835 0.429234 0.759435 0.206835 0.429231 0.569721 0.154593 0.322182 18.436373 -1.914946 -1.614208 -1.985286 -2.966258 -3.577511 -4.814556 -10.959179 -3.922846 17.947845 -57.653900 15.063094 15.596273 -0.256148 -4.895942 0.884515 -20.514791 -12.975797 2.467701 8.617883 -4.071252 -21.839412 73.672189 14.561308 -8.926228 6.057496 -16.411519 22.429158 -7.636262 5.443551 7.742446 -0.590885 -0.218750 1.760712 -0.332027 -0.670346 -4.730951 0.129927 -3.869874 -0.046475 -0.006556 -0.064877 7.833072 0.240797 0.260508 0.356120 0.099376 2.398955 -3.476292 -1.080710 0.562843 0.054221 -0.034522 0.075736 
-10.582812 -4.660655 83.090172 1.902908 4.357495 -107.328992 1.757785 0.548923 1.155749 0.782136 0.229528 0.467442 0.782136 0.229528 0.467437 0.586777 0.171548 0.350875 18.493138 -1.965495 -1.627999 -1.881770 -3.055470 -3.618031 -4.793631 -10.920309 -3.907301 20.097321 -56.519522 17.571855 18.049603 0.341749 -5.824956 2.335852 -21.014551 -13.390576 2.322071 8.582016 -4.129240 -21.270403 73.580207 13.853860 -8.817278 6.513754 -17.483990 21.586003 -10.660124 5.029468 7.802419 -0.582959 -0.277914 1.817039 -0.356497 -0.738950 -4.752644 0.146132 -3.924575 -0.047918 -0.004426 -0.063942 7.860305 0.238204 0.135840 0.400207 0.094972 2.372637 -3.457872 -1.076925 0.542781 0.060673 -0.038218 0.074097 
-10.546940 -4.680099 83.091583 1.918355 4.452681 -107.169227 1.790145 0.600209 1.228375 0.797192 0.251461 0.498765 0.797192 0.251461 0.498767 0.598099 0.187945 0.374405 18.577654 -2.006485 -1.620283 -1.726257 -3.135011 -3.615366 -4.726037 -10.859625 -3.875961 21.813830 -55.380605 19.810639 20.007818 0.850042 -6.728821 3.634802 -21.355917 -13.808126 2.213968 8.564789 -4.184975 -20.730794 73.518141 13.165453 -8.737680 7.005423 -18.435442 20.460399 -14.116843 4.410800 7.852416 -0.577903 -0.337523 1.883499 -0.374618 -0.794609 -4.771736 0.158057 -3.982208 -0.049669 -0.003224 -0.062116 7.878773 0.237385 0.000693 0.463141 0.088433 2.348063 -3.446686 -1.076087 0.548712 0.065867 -0.040047 0.072336 
-10.509058 -4.702762 83.093414 1.939497 4.550416 -107.039166 1.813785 0.650523 1.291317 0.807670 0.272901 0.526477 0.807671 0.272901 0.526481 0.605987 0.203981 0.395223 18.679271 -2.043621 -1.593836 -1.538736 -3.214045 -3.576703 -4.618637 -10.789010 -3.855101 22.978223 -54.223858 21.736298 21.648402 1.229910 -7.563032 4.779406 -21.592767 -14.165180 2.125325 8.559741 -4.238825 -20.393338 73.464729 12.649710 -8.578993 7.471581 -19.214577 19.065515 -17.914133 3.421868 7.897772 -0.568124 -0.414700 1.957565 -0.398442 -0.822005 -4.787889 0.170728 -4.013586 -0.051983 -0.003107 -0.060307 7.898015 0.236140 -0.112253 0.535847 0.083913 2.326174 -3.442516 -1.078683 0.552586 0.070885 -0.040406 0.070259 
-10.470069 -4.727381 83.095299 1.966035 4.651935 -106.934705 1.833204 0.698626 1.339398 0.816083 0.294343 0.547318 0.816083 0.294343 0.547317 0.612325 0.220027 0.410885 18.789681 -2.075157 -1.544368 -1.334480 -3.290456 -3.493821 -4.561523 -10.707742 -3.832961 23.873885 -53.062066 23.537117 22.994337 1.520083 -8.329537 5.750250 -21.686663 -14.472435 2.042855 8.548147 -4.259805 -20.130613 73.441636 12.153849 -8.326678 7.878376 -19.768680 17.630004 -21.981470 1.978745 7.940508 -0.558124 -0.496738 2.039671 -0.418898 -0.822436 -4.802265 0.181079 -4.027715 -0.054689 -0.004160 -0.059363 7.925084 0.234741 -0.186337 0.607518 0.081680 2.314153 -3.441452 -1.081806 0.535752 0.075991 -0.041418 0.069719 
-10.432117 -4.750239 83.096710 2.000722 4.756139 -106.876840 1.848911 0.727406 1.368468 0.822436 0.308228 0.559600 0.822436 0.308228 0.559601 0.617108 0.230418 0.420111 18.903711 -2.077774 -1.465520 -1.122139 -3.323460 -3.347664 -4.525389 -10.591391 -3.768924 24.578849 -51.885348 25.307417 24.131586 1.733883 -9.027968 6.617993 -21.613519 -14.742939 1.902381 8.589594 -4.225295 -19.791877 73.428645 11.602034 -7.968136 8.187816 -20.107978 16.268450 -26.276043 0.057849 7.985406 -0.555076 -0.536109 2.118365 -0.430962 -0.829766 -4.810856 0.189141 -4.040639 -0.055788 -0.005572 -0.057468 7.967350 0.231345 -0.190405 0.672905 0.078963 2.301544 -3.446916 -1.080916 0.499162 0.082091 -0.043085 0.069767 
-10.396031 -4.768121 83.097809 2.043442 4.864370 -106.865775 1.867318 0.747747 1.380306 0.829882 0.318460 0.564568 0.829882 0.318460 0.564568 0.622705 0.238079 0.423857 19.016305 -2.053983 -1.352913 -0.911153 -3.318774 -3.131279 -4.442617 -10.448821 -3.670302 25.061474 -50.723812 27.084857 25.195912 1.930845 -9.613294 7.413490 -21.387400 -14.994478 1.775997 8.646205 -4.206533 -19.433348 73.464852 11.022373 -7.556679 8.272260 -20.252175 14.739273 -30.649309 -2.413310 8.036529 -0.554993 -0.528674 2.193361 -0.437478 -0.846711 -4.815137 0.192184 -4.017112 -0.056566 -0.005630 -0.055051 8.028415 0.222407 -0.134073 0.729121 0.082820 2.268724 -3.457628 -1.078840 0.477137 0.088564 -0.046694 0.069518 
-10.362388 -4.786261 83.098747 2.089999 4.978980 -106.900759 1.882268 0.756073 1.365297 0.836131 0.323520 0.558076 0.836131 0.323520 0.558084 0.627392 0.241877 0.419003 19.132673 -1.997751 -1.198048 -0.691620 -3.268016 -2.827207 -4.371122 -10.259929 -3.568418 25.390736 -49.565245 28.918126 26.233957 2.092252 -10.095333 8.131584 -21.023691 -15.211917 1.713559 8.737519 -4.232598 -18.865601 73.534254 10.232223 -7.259182 8.142315 -20.207805 12.637881 -35.044741 -5.600845 8.086897 -0.554865 -0.505279 2.273539 -0.441933 -0.847984 -4.818768 0.194425 -4.025769 -0.054725 -0.002876 -0.055245 8.101339 0.214660 -0.050384 0.790204 0.090904 2.225987 -3.477598 -1.077252 0.469408 0.093412 -0.050737 0.069022 
-10.327429 -4.804989 83.099518 2.142615 5.098247 -106.990740 1.902885 0.771528 1.334826 0.845536 0.331597 0.545565 0.845536 0.331597 0.545562 0.634446 0.247943 0.409635 19.245701 -1.933242 -1.006092 -0.477580 -3.213323 -2.452891 -4.326549 -10.052934 -3.489613 25.632151 -48.430126 30.839926 27.185177 2.242410 -10.439064 8.707323 -20.579147 -15.488292 1.665235 8.802931 -4.256716 -17.872868 73.679238 9.023355 -7.269282 7.862016 -19.968487 9.836250 -39.274674 -9.478633 8.134754 -0.548091 -0.463544 2.360250 -0.444007 -0.830833 -4.821061 0.189123 -4.016017 -0.051314 0.001015 -0.054625 8.179185 0.216110 0.031157 0.865482 0.090385 2.217088 -3.509044 -1.074852 0.482407 0.095811 -0.052231 0.066746 
-10.290539 -4.826748 83.100182 2.200635 5.225253 -107.141038 1.936113 0.791989 1.309857 0.860761 0.342603 0.536067 0.860761 0.342603 0.536067 0.645871 0.256198 0.402531 19.348604 -1.869101 -0.787760 -0.281893 -3.166863 -2.030862 -4.337349 -9.839564 -3.423246 25.786718 -47.305986 32.804371 27.922085 2.362290 -10.632631 9.133201 -20.007661 -15.796969 1.653387 8.850105 -4.333525 -16.789788 73.851885 7.685775 -7.547649 7.524186 -19.595664 6.441139 -43.158722 -13.847556 8.172816 -0.535685 -0.397466 2.467368 -0.442953 -0.799308 -4.826143 0.179411 -3.972726 -0.046088 0.005390 -0.054056 8.261125 0.227624 0.100016 0.961747 0.084634 2.259259 -3.555641 -1.072437 0.512206 0.096074 -0.051793 0.063714 
